<svg width="10" height="10" viewBox="0 0 10 10" fill="none" xmlns="http://www.w3.org/2000/svg">
<path id="navigation" d="M1.34963 0.0658287C1.6031 0.0658287 1.90726 0.262978 2.26212 0.657276L3.77838 1.84017C3.84174 1.87714 3.95226 1.94466 4.10992 2.04274C4.26757 2.14082 4.38138 2.20983 4.45134 2.24975C4.53627 2.29668 4.62503 2.33673 4.71672 2.36952C4.8041 2.40519 4.89731 2.42546 4.99199 2.4294C5.10694 2.42624 5.21992 2.39954 5.32353 2.35103C5.49264 2.27163 5.65577 2.18071 5.81171 2.07897C6.01753 1.94983 6.14857 1.86999 6.20484 1.83943L7.7211 0.656536L7.85341 0.532333L8.00017 0.394082C8.02856 0.366481 8.07596 0.326559 8.14237 0.274314C8.19346 0.231786 8.24902 0.194614 8.30814 0.163417C8.35917 0.139357 8.41146 0.117889 8.46478 0.0990976C8.51759 0.0787065 8.57374 0.0676892 8.63055 0.0665683C8.711 0.0650259 8.79089 0.0798115 8.86513 0.109981C8.93937 0.14015 9.00632 0.18504 9.0617 0.241784C9.11743 0.295951 9.16142 0.360435 9.19107 0.43142C9.22072 0.502405 9.23543 0.57845 9.23432 0.655058L5.595 8.90944C5.59592 8.98644 5.58092 9.06284 5.55088 9.13409C5.52083 9.20534 5.47636 9.26999 5.4201 9.3242C5.3656 9.38094 5.29949 9.42598 5.22603 9.45641C5.15256 9.48684 5.07336 9.50199 4.99351 9.50089C4.91315 9.50185 4.83343 9.4868 4.75928 9.45667C4.68513 9.42653 4.61811 9.38195 4.56236 9.32567C4.5046 9.272 4.45879 9.20735 4.42779 9.13575C4.39679 9.06415 4.38125 8.98712 4.38214 8.90944L0.742821 0.653579C0.741235 0.575366 0.756442 0.49769 0.787473 0.425512C0.818503 0.353335 0.864674 0.288242 0.923038 0.234391C0.978866 0.179894 1.04541 0.136884 1.1187 0.107924C1.19199 0.0789645 1.27053 0.0646481 1.34963 0.0658287Z" fill="#65B2E9"/>
</svg>
